<svg width="976" height="976" viewBox="0 0 976 976" fill="none" xmlns="http://www.w3.org/2000/svg">
<style>
  path { fill: black; } 
  @media (prefers-color-scheme: dark) { path { fill: white;} }
</style>
<path d="M250.952 330.173L168.932 451.352C166.539 455.239 169.01 460.291 173.541 460.789L335.374 477.945L250.952 330.173V330.173ZM173.758 408.194L232.264 313.088L172.709 277.346C170.634 276.102 168 277.595 168 280.012V406.57C168 409.702 172.111 410.868 173.758 408.194ZM182.182 492.279L333.244 560.42C337.363 562.324 342.064 559.308 342.064 554.776V503.729L183.891 486.394C180.433 486.005 179.05 490.739 182.182 492.279V492.279ZM245.295 291.897L307.407 180.785C310.779 175.297 304.617 168.931 299.03 172.126L181.84 248.779C179.92 250.038 179.982 252.868 181.941 254.049L245.295 291.897V291.897ZM354.497 299.811H439.361L365.089 168.923C362.657 164.974 358.577 163 354.497 163C350.418 163 346.338 164.974 343.906 168.923L269.633 299.811H354.497ZM536.286 277.346L476.731 313.095L535.236 408.202C536.876 410.876 540.995 409.71 540.995 406.57V280.012C540.995 277.595 538.36 276.102 536.286 277.346V277.346ZM463.699 291.897L527.054 254.041C529.02 252.86 529.074 250.03 527.155 248.771L409.965 172.126C404.378 168.931 398.215 175.297 401.588 180.785L463.699 291.897ZM525.103 486.394L366.93 503.721V554.768C366.93 559.308 371.632 562.316 375.75 560.412L526.813 492.271C529.945 490.739 528.561 486.005 525.103 486.394V486.394ZM458.042 330.173L373.629 477.945L535.462 460.789C539.992 460.283 542.463 455.239 540.07 451.352L458.042 330.173V330.173ZM354.497 324.685H276.456L354.497 461.302L432.539 324.685H354.497Z"/>
<path d="M871.692 766.842C847.709 743.872 824.367 720.242 801.692 695.98C782.643 676.626 771.173 662.545 771.173 662.545L627.794 594.089C685.197 528.994 716.877 445.195 716.894 358.409C716.894 160.823 556.105 0 358.447 0C160.789 0 0 160.823 0 358.409C0 555.995 160.789 716.819 358.447 716.819C448.724 716.819 531.014 683.026 594.152 627.78L662.615 771.143C662.615 771.143 676.697 782.612 696.053 801.659C715.87 820.245 741.934 845.385 766.923 871.652L836.462 942.924L867.391 976L976 867.402L942.92 836.476C923.513 817.429 897.603 792.136 871.692 766.842ZM358.447 614.416C217.27 614.416 102.413 499.572 102.413 358.409C102.413 217.247 217.27 102.403 358.447 102.403C499.624 102.403 614.481 217.247 614.481 358.409C614.481 499.572 499.624 614.416 358.447 614.416Z"/>
</svg>
